<?xml version="1.0" encoding="utf-8"?>
<svg xmlns="http://www.w3.org/2000/svg" style="margin: auto; display: block; shape-rendering: auto;" width="280" height="250" preserveAspectRatio="xMidYMid">
<style type="text/css">
  text {
    text-anchor: middle; font-size: 46px; opacity: 0;
  }
</style>
<g style="transform-origin:140px 125px;transform:scale(1)">
<g transform="translate(140,125)">
  <g transform="translate(0,0)"><g class="path" style="transform: scale(0.91); transform-origin: -74.8809px -4.75391px 0px; animation: 1s linear -0.6s infinite normal forwards running breath-4a577eb1-db61-414c-b715-eae81dad7f0b;"><path d="M2.67-34.45L8.97-35.60L8.37-11.96L8.88-1.15L2.67 0L3.22-11.18L2.67-34.45" fill="#41c430" stroke="none" stroke-width="none" transform="translate(-80.70000457763672,13.047240878018464)" style="fill: rgb(65, 196, 48);"></path></g><g class="path" style="transform: scale(0.91); transform-origin: -57.9746px 1.45703px 0px; animation: 1s linear -0.54s infinite normal forwards running breath-4a577eb1-db61-414c-b715-eae81dad7f0b;"><path d="M12.93-9.61L12.93-9.61Q12.93-15.50 16.10-19.60L16.10-19.60L16.10-19.60Q19.27-23.69 23.53-23.69L23.53-23.69L23.53-23.69Q27.78-23.69 30.15-20.93L30.15-20.93L30.15-20.93Q32.52-18.17 32.52-13.62L32.52-13.62L32.52-13.62Q32.52-7.54 29.46-3.52L29.46-3.52L29.46-3.52Q26.40 0.51 21.76 0.51L21.76 0.51L21.76 0.51Q17.94 0.51 15.43-2.37L15.43-2.37L15.43-2.37Q12.93-5.24 12.93-9.61L12.93-9.61zM27.37-11.22L27.37-11.22L27.37-11.22Q27.37-17.89 22.82-17.89L22.82-17.89L22.82-17.89Q18.08-17.89 18.08-11.64L18.08-11.64L18.08-11.64Q18.08-8.37 19.41-6.53L19.41-6.53L19.41-6.53Q20.75-4.69 22.93-4.69L22.93-4.69L22.93-4.69Q25.12-4.69 26.24-6.37L26.24-6.37L26.24-6.37Q27.37-8.05 27.37-11.22" fill="#41c430" stroke="none" stroke-width="none" transform="translate(-80.70000457763672,13.047240878018464)" style="fill: rgb(65, 196, 48);"></path></g><g class="path" style="transform: scale(0.91); transform-origin: -36.2188px 1.27148px 0px; animation: 1s linear -0.48s infinite normal forwards running breath-4a577eb1-db61-414c-b715-eae81dad7f0b;"><path d="M41.08 0L41.08 0Q38.36 0 36.64-1.72L36.64-1.72L36.64-1.72Q34.91-3.45 34.91-6.37L34.91-6.37L34.91-6.37Q34.91-9.29 37.58-11.43L37.58-11.43L37.58-11.43Q40.25-13.57 44.07-13.57L44.07-13.57L47.20-13.57L47.20-14.35L47.20-14.35Q47.20-16.61 46.28-17.43L46.28-17.43L46.28-17.43Q45.36-18.26 42.83-18.26L42.83-18.26L42.83-18.26Q41.77-18.26 40.32-17.82L40.32-17.82L40.32-17.82Q38.87-17.39 37.08-16.47L37.08-16.47L35.74-20.10L35.74-20.10Q37.72-21.48 40.55-22.59L40.55-22.59L40.55-22.59Q43.38-23.69 45.22-23.69L45.22-23.69L45.22-23.69Q52.44-23.69 52.44-16.70L52.44-16.70L52.44-7.68L52.44-7.68Q52.44-5.11 54.05-1.93L54.05-1.93L49.17 0.14L49.17 0.14Q48.02-2.07 47.47-3.82L47.47-3.82L47.47-3.82Q44.94 0 41.08 0L41.08 0zM43.01-4.69L43.01-4.69L43.01-4.69Q44.85-4.69 47.20-6.58L47.20-6.58L47.20-9.66L47.20-9.66Q44.76-10.21 43.24-10.21L43.24-10.21L43.24-10.21Q40.34-10.21 40.34-7.64L40.34-7.64L40.34-7.64Q40.34-6.30 41.08-5.50L41.08-5.50L41.08-5.50Q41.81-4.69 43.01-4.69" fill="#41c430" stroke="none" stroke-width="none" transform="translate(-80.70000457763672,13.047240878018464)" style="fill: rgb(65, 196, 48);"></path></g><g class="path" style="transform: scale(0.91); transform-origin: -14.0957px -4.49805px 0px; animation: 1s linear -0.42s infinite normal forwards running breath-4a577eb1-db61-414c-b715-eae81dad7f0b;"><path d="M70.20-4.51L70.20-4.51L70.20-4.51Q66.61 0 63.99 0L63.99 0L63.99 0Q60.72 0 58.63-2.67L58.63-2.67L58.63-2.67Q56.53-5.34 56.53-9.52L56.53-9.52L56.53-9.52Q56.53-15.27 59.73-19.23L59.73-19.23L59.73-19.23Q62.93-23.18 67.57-23.18L67.57-23.18L70.15-22.82L70.15-23.69L69.60-34.45L75.90-35.60L75.30-11.96L75.30-7.91L75.30-7.91Q75.30-5.15 76.68-1.56L76.68-1.56L71.71 0.51L71.71 0.51Q70.38-2.25 70.20-4.51zM61.69-11.91L61.69-11.91L61.69-11.91Q61.69-8.97 62.77-7.31L62.77-7.31L62.77-7.31Q63.85-5.66 65.89-5.66L65.89-5.66L65.89-5.66Q67.94-5.66 70.15-7.31L70.15-7.31L70.15-17.25L70.15-17.25Q67.39-17.80 66.06-17.80L66.06-17.80L66.06-17.80Q63.99-17.80 62.84-16.33L62.84-16.33L62.84-16.33Q61.69-14.86 61.69-11.91" fill="#41c430" stroke="none" stroke-width="none" transform="translate(-80.70000457763672,13.047240878018464)" style="fill: rgb(65, 196, 48);"></path></g><g class="path" style="transform: scale(0.91); transform-origin: 3.50391px 1.3418px 0px; animation: 1s linear -0.36s infinite normal forwards running breath-4a577eb1-db61-414c-b715-eae81dad7f0b;"><path d="M81.14-22.26L87.31-23.41L86.76-11.96L87.26-1.15L81.10 0L81.65-11.18L81.14-22.26" fill="#41c430" stroke="none" stroke-width="none" transform="translate(-80.70000457763672,13.047240878018464)" style="fill: rgb(65, 196, 48);"></path></g><g class="path" style="transform: scale(0.91); transform-origin: 3.71094px -17.3125px 0px; animation: 1s linear -0.3s infinite normal forwards running breath-4a577eb1-db61-414c-b715-eae81dad7f0b;"><path d="M80.82-30.15L80.82-30.15L80.82-30.15Q80.82-31.69 82.02-32.91L82.02-32.91L82.02-32.91Q83.21-34.13 84.78-34.13L84.78-34.13L84.78-34.13Q86.34-34.13 87.17-33.28L87.17-33.28L87.17-33.28Q88.00-32.43 88.00-30.73L88.00-30.73L88.00-30.73Q88.00-29.03 86.83-27.81L86.83-27.81L86.83-27.81Q85.65-26.59 84.11-26.59L84.11-26.59L84.11-26.59Q82.57-26.59 81.70-27.60L81.70-27.60L81.70-27.60Q80.82-28.61 80.82-30.15" fill="#41c430" stroke="none" stroke-width="none" transform="translate(-80.70000457763672,13.047240878018464)" style="fill: rgb(65, 196, 48);"></path></g><g class="path" style="transform: scale(0.91); transform-origin: 20.916px 1.45703px 0px; animation: 1s linear -0.24s infinite normal forwards running breath-4a577eb1-db61-414c-b715-eae81dad7f0b;"><path d="M105.71-11.64L105.71-11.64Q105.71-14.81 105.16-15.87L105.16-15.87L105.16-15.87Q104.60-16.93 102.58-16.93L102.58-16.93L102.58-16.93Q100.56-16.93 97.98-15.32L97.98-15.32L97.98-11.96L98.49-1.15L92.32 0L92.87-11.18L92.87-11.18Q92.69-17.34 91.86-22.22L91.86-22.22L97.43-23.41L97.43-23.41Q97.75-20.75 97.89-18.22L97.89-18.22L97.89-18.22Q98.58-19.14 99.45-20.03L99.45-20.03L99.45-20.03Q100.33-20.93 102.21-22.06L102.21-22.06L102.21-22.06Q104.10-23.18 106.19-23.18L106.19-23.18L106.19-23.18Q108.28-23.18 109.71-21.55L109.71-21.55L109.71-21.55Q111.14-19.92 111.14-17.11L111.14-17.11L110.86-11.96L111.37-0.92L105.16 0.23L105.71-11.64" fill="#41c430" stroke="none" stroke-width="none" transform="translate(-80.70000457763672,13.047240878018464)" style="fill: rgb(65, 196, 48);"></path></g><g class="path" style="transform: scale(0.91); transform-origin: 45.3906px 6.26172px 0px; animation: 1s linear -0.18s infinite normal forwards running breath-4a577eb1-db61-414c-b715-eae81dad7f0b;"><path d="M114.82 4.55L114.82 4.55L114.82 4.55Q114.82 0.51 122.36-1.79L122.36-1.79L122.36-1.79Q120.57-2.71 120.57-4.19L120.57-4.19L120.57-4.19Q120.57-4.78 121.03-5.38L121.03-5.38L121.03-5.38Q121.49-5.98 122.36-6.62L122.36-6.62L122.36-6.99L122.36-6.99Q119.05-6.99 117.09-8.83L117.09-8.83L117.09-8.83Q115.14-10.67 115.14-13.75L115.14-13.75L115.14-13.75Q115.14-17.76 118.40-20.72L118.40-20.72L118.40-20.72Q121.67-23.69 126.13-23.69L126.13-23.69L126.13-23.69Q127.28-23.69 129.49-23.23L129.49-23.23L129.49-23.23Q131.70-22.77 133.81-22.77L133.81-22.77L137.36-22.77L136.90-18.77L133.45-19.18L133.45-19.18Q133.91-17.85 133.91-16.15L133.91-16.15L133.91-16.15Q133.91-14.44 133.10-12.77L133.10-12.77L133.10-12.77Q132.30-11.09 131.17-10.07L131.17-10.07L131.17-10.07Q130.04-9.06 128.92-8.30L128.92-8.30L128.92-8.30Q127.79-7.54 126.98-6.97L126.98-6.97L126.98-6.97Q126.18-6.39 126.18-5.93L126.18-5.93L126.18-5.93Q126.18-5.06 128.02-4.42L128.02-4.42L128.02-4.42Q132.89-2.44 134.62-1.06L134.62-1.06L134.62-1.06Q136.34 0.32 136.34 2.35L136.34 2.35L136.34 2.35Q136.34 5.75 132.92 7.93L132.92 7.93L132.92 7.93Q129.49 10.12 124.75 10.12L124.75 10.12L124.75 10.12Q120.01 10.12 117.42 8.60L117.42 8.60L117.42 8.60Q114.82 7.08 114.82 4.55zM128.71-14.77L128.71-14.77L128.71-14.77Q128.71-17.02 127.70-18.08L127.70-18.08L127.70-18.08Q126.68-19.14 124.52-19.14L124.52-19.14L124.52-19.14Q120.34-19.14 120.34-15.02L120.34-15.02L120.34-15.02Q120.34-10.90 124.80-10.90L124.80-10.90L124.80-10.90Q128.71-10.90 128.71-14.77zM130.36 3.04L130.36 3.04L130.36 3.04Q130.36 2.21 129.49 1.49L129.49 1.49L129.49 1.49Q128.62 0.78 126.36-0.18L126.36-0.18L126.36-0.18Q123.00 0.74 121.74 1.52L121.74 1.52L121.74 1.52Q120.47 2.30 120.47 3.45L120.47 3.45L120.47 3.45Q120.47 4.60 121.74 5.31L121.74 5.31L121.74 5.31Q123.00 6.03 125.26 6.03L125.26 6.03L125.26 6.03Q127.51 6.03 128.94 5.20L128.94 5.20L128.94 5.20Q130.36 4.37 130.36 3.04" fill="#41c430" stroke="none" stroke-width="none" transform="translate(-80.70000457763672,13.047240878018464)" style="fill: rgb(65, 196, 48);"></path></g><g class="path" style="transform: scale(0.91); transform-origin: 61.1445px 9.7832px 0px; animation: 1s linear -0.12s infinite normal forwards running breath-4a577eb1-db61-414c-b715-eae81dad7f0b;"><path d="M138.51-3.08L138.51-3.08L138.51-3.08Q138.51-4.55 139.59-5.68L139.59-5.68L139.59-5.68Q140.67-6.81 142.19-6.81L142.19-6.81L142.19-6.81Q145.18-6.81 145.18-3.77L145.18-3.77L145.18-3.77Q145.18-2.02 144.09-0.87L144.09-0.87L144.09-0.87Q143.01 0.28 141.56 0.28L141.56 0.28L141.56 0.28Q140.12 0.28 139.31-0.67L139.31-0.67L139.31-0.67Q138.51-1.61 138.51-3.08" fill="#41c430" stroke="none" stroke-width="none" transform="translate(-80.70000457763672,13.047240878018464)" style="fill: rgb(65, 196, 48);"></path></g><g class="path" style="transform: scale(0.91); transform-origin: 70.5742px 9.7832px 0px; animation: 1s linear -0.06s infinite normal forwards running breath-4a577eb1-db61-414c-b715-eae81dad7f0b;"><path d="M147.94-3.08L147.94-3.08L147.94-3.08Q147.94-4.55 149.02-5.68L149.02-5.68L149.02-5.68Q150.10-6.81 151.62-6.81L151.62-6.81L151.62-6.81Q154.61-6.81 154.61-3.77L154.61-3.77L154.61-3.77Q154.61-2.02 153.53-0.87L153.53-0.87L153.53-0.87Q152.44 0.28 151.00 0.28L151.00 0.28L151.00 0.28Q149.55 0.28 148.74-0.67L148.74-0.67L148.74-0.67Q147.94-1.61 147.94-3.08" fill="#41c430" stroke="none" stroke-width="none" transform="translate(-80.70000457763672,13.047240878018464)" style="fill: rgb(65, 196, 48);"></path></g><g class="path" style="transform: scale(0.91); transform-origin: 80.0059px 9.7832px 0px; animation: 1s linear 0s infinite normal forwards running breath-4a577eb1-db61-414c-b715-eae81dad7f0b;"><path d="M157.37-3.08L157.37-3.08L157.37-3.08Q157.37-4.55 158.45-5.68L158.45-5.68L158.45-5.68Q159.53-6.81 161.05-6.81L161.05-6.81L161.05-6.81Q164.04-6.81 164.04-3.77L164.04-3.77L164.04-3.77Q164.04-2.02 162.96-0.87L162.96-0.87L162.96-0.87Q161.87 0.28 160.43 0.28L160.43 0.28L160.43 0.28Q158.98 0.28 158.17-0.67L158.17-0.67L158.17-0.67Q157.37-1.61 157.37-3.08" fill="#41c430" stroke="none" stroke-width="none" transform="translate(-80.70000457763672,13.047240878018464)" style="fill: rgb(65, 196, 48);"></path></g></g>
</g>
</g>
<style id="breath-4a577eb1-db61-414c-b715-eae81dad7f0b" data-anikit="">@keyframes breath-4a577eb1-db61-414c-b715-eae81dad7f0b
{
  0% {
    animation-timing-function: cubic-bezier(0.9647,0.2413,-0.0705,0.7911);
    transform: scale(0.9099999999999999);
  }
  51% {
    animation-timing-function: cubic-bezier(0.9226,0.2631,-0.0308,0.7628);
    transform: scale(1.02994);
  }
  100% {
    transform: scale(0.9099999999999999);
  }
}</style></svg>